Coordinates
version=1
nRows=20
nColumns=34
inDegrees=yes

Units are S.I. units (second, meters, Newtons, ...)
If the header above contains a line with 'inDegrees', this indicates whether rotational values are in degrees (yes) or radians (no).

endheader
time	pelvis_tilt	pelvis_list	pelvis_rotation	pelvis_tx	pelvis_ty	pelvis_tz	hip_flexion_r	hip_adduction_r	hip_rotation_r	knee_angle_r	ankle_angle_r	subtalar_angle_r	mtp_angle_r	hip_flexion_l	hip_adduction_l	hip_rotation_l	knee_angle_l	ankle_angle_l	subtalar_angle_l	mtp_angle_l	lumbar_extension	lumbar_bending	lumbar_rotation	arm_flex_r	arm_add_r	arm_rot_r	elbow_flex_r	pro_sup_r	arm_flex_l	arm_add_l	arm_rot_l	elbow_flex_l	pro_sup_l
      2.00000000	      9.12599932	     -3.42084061	      4.00736725	    -10.71783711	      0.87240545	      0.72298925	    -21.28535076	      0.67329609	     -4.79145392	      3.11549293	     -8.38470887	    -28.39725636	      0.00000000	    -23.53405697	     -0.14964534	     -0.51569838	      1.84793544	     -4.37430548	    -32.37796773	      0.00000000	    -20.50317303	     -0.75112562	     26.11991462	   -263.52113815	   -150.01455148	    -12.15323951	    121.37430527	     47.40220672	   -273.17437662	    -10.46289054	     -1.85973467	    130.66459183	     91.55329191
      2.01666670	      9.40366206	     -3.59523195	      3.74965059	    -10.70642659	      0.86717624	      0.71963548	    -22.07491796	      0.51648352	     -4.75924406	      3.55795753	     -6.83371645	    -27.89575074	      0.00000000	    -24.37306957	     -0.02929602	     -0.86856733	      2.57527737	     -2.87950378	    -32.23063329	      0.00000000	    -20.43673074	      0.15604175	     29.07022916	   -264.76611334	   -152.27786421	    -10.62318478	    119.26597216	     48.40577324	   -273.66335450	    -10.56826672	     21.29900375	     91.53184079	     96.97168561
      2.03333330	      9.75430718	     -3.75517886	      4.00737537	    -10.69435065	      0.86303270	      0.71637093	    -23.32486749	      0.57893534	     -4.81445143	      3.62291992	     -6.41081254	    -27.49669967	      0.00000000	    -25.68987234	     -0.07900073	     -0.01905841	      2.61172903	     -1.20582651	    -32.06116148	      0.00000000	    -21.14218026	     -1.25297783	     27.03858164	   -260.94613910	   -150.06305180	     -2.15799466	    119.63881364	     50.40304887	   -260.74665763	     -2.62895063	     49.66908371	     38.82654587	    101.42203147
      2.05000000	      8.96383314	     -3.99882259	      4.16124707	    -10.68356893	      0.86575796	      0.71321892	    -22.66307525	      0.61115384	     -4.70331635	      4.70517221	     -6.82357272	    -28.70281714	      0.00000000	    -25.40476412	     -0.14736171	      0.01091689	      3.10534625	     -0.74292920	    -32.12644995	      0.00000000	    -21.16146783	     -2.59224397	     21.56402002	   -255.06851538	   -142.27099978	      2.11183582	    121.93028486	     65.33700205	   -253.11238585	     -1.89070063	     90.91737325	     22.87935927	     64.22466743
      2.06666670	      7.27243904	     -4.24292583	      4.38475628	    -10.67610018	      0.86292196	      0.71052167	    -20.72271842	      0.61775772	     -4.19590128	      6.01161439	     -6.04139857	    -29.12093440	      0.00000000	    -23.90754954	     -0.19497165	      0.27842564	      3.79073676	     -0.59979581	    -32.79578916	      0.00000000	    -16.95712033	     -1.55736385	     27.61536087	   -255.55883531	   -147.66298255	     -0.92531180	    122.76023015	     64.77689403	   -259.07286426	      0.14846001	     90.21002824	     29.73129207	     64.10532928
      2.08333330	      6.27027377	     -4.73626929	      4.47613630	    -10.67641072	      0.86552223	      0.70726925	    -19.23751034	      0.87670439	     -3.07508964	      6.85136014	     -6.03600397	    -29.71210366	      0.00000000	    -22.79616932	     -0.41696563	      0.29349749	      4.42200881	     -1.62155043	    -34.93519686	      0.00000000	    -15.19570135	      2.82368157	     38.59627726	   -260.07339893	   -157.80637767	    -11.93050954	    122.43257970	     61.71958361	   -275.29324259	     -6.56849844	     62.40449288	     63.45745141	     69.83285112
      2.10000000	      2.78205892	     -4.96123922	      4.66362389	    -10.67680169	      0.86379028	      0.70433066	    -14.23830687	      0.74027240	     -2.34006431	      9.10502190	     -4.67256405	    -30.41241678	      0.00000000	    -18.31366343	     -0.31486974	      0.91315326	      5.86216518	     -1.10607058	    -35.00000000	      0.00000000	    -12.83115348	      4.37003555	     42.98662921	   -258.75808765	   -159.34584776	    -16.67793025	    124.02921573	     60.18395049	   -288.17825919	    -17.24098195	     58.22360193	     95.18641342	     74.07992834
      2.11666670	      0.84395006	     -5.16577949	      5.02975703	    -10.67273258	      0.86792648	      0.70076830	    -10.92374909	      0.73329823	     -1.59400164	     11.14737930	     -5.61537969	    -31.34807630	      0.00000000	    -14.97505124	     -0.31547546	      1.33840853	      8.11388061	     -0.82607856	    -35.00000000	      0.00000000	    -14.16499153	      4.67277780	     41.14553655	   -256.39901590	   -153.30202732	    -20.74516901	    127.95936690	     57.08011691	   -303.27159413	    -27.22454791	     48.22008182	    117.82979642	     79.87898910
      2.13333330	     -1.11288973	     -5.31843616	      4.64029708	    -10.66241189	      0.86415243	      0.69832980	     -6.99290493	      0.59172852	     -0.00990397	     14.85325933	     -7.90002412	    -35.00000000	      0.00000000	    -12.16958246	     -0.13170931	      0.68855895	      9.68680846	     -1.23931779	    -34.97863058	      0.00000000	    -15.00056026	      4.15678005	     37.69556791	   -253.58002497	   -146.72888423	    -19.69846329	    131.15331164	     49.36109752	   -318.63089355	    -34.39328580	     37.14729078	    132.47073077	     96.33192485
      2.15000000	     -2.91742590	     -4.97563919	      4.76863801	    -10.65284467	      0.86071448	      0.69460973	     -3.37773567	     -0.10270304	     -0.08142665	     18.92062540	     -8.94067629	    -35.00000000	      0.00000000	     -9.20161517	      0.42217477	      0.63186413	     12.33852086	     -1.45789842	    -35.00000000	      0.00000000	    -15.33194077	      2.86968765	     37.85148742	   -251.76510759	   -147.77858841	    -20.82386979	    129.21291701	     48.52308413	   -325.55838883	    -35.56470919	     36.47163848	    138.01022044	     98.92882625
      2.16666670	     -2.71706472	     -4.61111196	      4.48533531	    -10.64361674	      0.85291391	      0.69008662	     -1.90757041	     -0.89079369	     -0.55012135	     23.08955544	    -10.25191652	    -35.00000000	      0.00000000	     -9.38454645	      0.94746133	     -0.28812236	     13.40441829	     -2.25337926	    -35.00000000	      0.00000000	    -17.41723332	      1.48481387	     37.21503559	   -250.43896891	   -147.56315750	    -20.35895598	    128.34202717	     48.36767221	   -332.66605884	    -34.36348641	     39.09289811	    136.62950958	     99.44250515
      2.18333330	     -9.17106398	     -3.84426633	      2.85786322	    -10.63393218	      0.83757276	      0.68770375	      8.29384788	     -2.42256071	      0.68580090	     30.18825210	    -11.05292048	    -35.00000000	      0.00000000	     -2.03242672	      2.32862240	     -2.70577000	     15.36102014	     -4.18942899	    -35.00000000	      0.00000000	     -5.83443792	     -3.16784495	    -14.17480027	   -123.21575984	   -136.75068776	    138.11418562	    140.58926344	     65.68853264	   -408.93232494	    -15.02345800	    -24.12513000	    150.00035077	    119.74817918
      2.20000000	    -11.56351172	     -2.49995737	      1.80103149	    -10.63034989	      0.82993714	      0.68775286	     14.14056732	     -3.81655793	      2.28052608	     36.50699277	    -11.13819851	    -35.00000000	      0.00000000	      0.60896441	      3.76708080	     -5.60337275	     16.20832271	     -5.71587693	    -35.00000000	      0.00000000	     -6.02289539	     -7.93057914	     -8.30683472	   -137.32605535	   -130.08342700	    118.72186005	    140.19590046	     76.64024060	   -407.66983282	    -14.78159586	    -17.02669012	    148.94517487	    119.74817918
      2.21666670	    -15.04182393	     -1.12012558	      0.84168624	    -10.63108798	      0.82419443	      0.68895061	     21.44422064	     -4.92275763	      4.13255784	     42.27234995	    -10.20303884	    -35.00000000	      0.00000000	      4.56733372	      5.17688904	     -8.39375094	     17.03994706	     -6.95071461	    -35.00000000	      0.00000000	     -1.47754576	    -10.85521039	     -2.28812342	   -147.43498438	   -127.54919112	    111.17076785	    140.45201829	     77.99841643	   -407.18760965	    -15.37780203	    -13.12943752	    137.30578168	    117.84220716
      2.23333330	    -16.97092748	     -0.17016809	      0.04589517	    -10.63185489	      0.82935444	      0.69011390	     26.84532022	     -4.95497332	      6.23552722	     46.24065110	     -7.69533914	    -35.00000000	      0.00000000	      6.97610103	      5.99874314	    -10.42444925	     17.58178254	     -8.44117640	    -35.00000000	      0.00000000	     -0.18386757	    -13.24459328	      6.82049609	   -168.50404321	   -125.21580504	     87.18484836	    141.82109544	     73.58663707	   -404.06580449	    -18.84986294	     -9.34081614	    127.02728774	    105.20882840
      2.25000000	    -17.43037177	      0.18119208	     -0.44610314	    -10.62913337	      0.83284764	      0.68888602	     30.58725564	     -4.42179521	      7.44232791	     48.72006059	     -4.31857355	    -35.00000000	      0.00000000	      8.31610560	      6.15738722	    -11.87188513	     18.71762800	     -9.84851345	    -35.00000000	      0.00000000	      0.79763678	    -13.66947816	     10.46945293	   -168.41868334	   -126.61504338	     87.36215966	    143.50729094	     72.23336828	   -402.82786860	    -19.28198604	     -7.45056283	    119.38778029	    104.21500948
      2.26666670	    -20.84512426	      1.08233342	     -0.98815029	    -10.62651294	      0.81647700	      0.68811208	     38.57725723	     -3.93294462	      9.16836391	     51.76547576	     -0.97176327	    -35.00000000	      0.00000000	     13.85375241	      6.51838934	    -13.56030113	     21.89349230	    -10.74508482	    -35.00000000	      0.00000000	      4.97238128	    -14.84464086	     13.75184837	   -167.33967106	   -126.98492780	     87.55853496	    143.98452602	     69.43402923	   -402.36648325	    -20.71009622	     -4.89749271	    114.10140300	    102.09030133
      2.28333330	    -25.04836143	      1.83913942	     -1.60304414	    -10.63117671	      0.81004408	      0.68750285	     47.65693890	     -2.97539543	     10.42421576	     53.35886817	      0.58517825	    -35.00000000	      0.00000000	     20.27340289	      6.52989263	    -15.47695362	     25.14656648	    -13.21126305	    -35.00000000	      0.00000000	      9.53901461	    -15.60944597	     16.91158200	   -162.99394610	   -127.64829139	     90.34418835	    144.26965501	     66.71869190	   -399.90821950	    -22.04853888	     -1.72156288	    109.86540497	     99.99531124
      2.30000000	    -29.41398393	      2.56743164	     -2.03691672	    -10.63970814	      0.80343304	      0.68664567	     56.80545317	     -1.96280817	     11.03213580	     53.26561733	      0.98210162	    -35.00000000	      0.00000000	     26.58532915	      6.53435895	    -16.96933096	     27.94640667	    -16.12198283	    -35.00000000	      0.00000000	     13.38189809	    -16.19163483	     19.19056640	   -154.98225191	   -127.96822554	     95.46634064	    144.41649317	     64.55816373	   -396.25570085	    -22.87031037	      3.15434557	    106.59337845	     98.63239349
      2.31666670	    -33.45928738	      2.91079355	     -2.04691034	    -10.64519141	      0.80008053	      0.68450647	     64.69034411	     -0.85924375	     11.13586214	     51.22842776	      1.29730631	    -35.00000000	      0.00000000	     32.51350402	      6.48181887	    -16.89540401	     30.46538374	    -17.82293347	    -35.00000000	      0.00000000	     16.32840243	    -16.56189814	     20.13355628	   -144.90805138	   -129.66078078	     99.93015062	    144.73804449	     62.20936435	   -392.39599996	    -22.49133853	      6.64339488	    102.09291906	     97.17620764
